HIERARCHY
ROOT ui
{
	 OFFSET 0 0 0
	 CHANNELS 3 XPosition YPosition Z Position
	 EndSite
	 {
	 OFFSET 0 -1 0
	 }
}
ROOT li
{
	 OFFSET 0 0 0
	 CHANNELS 3 XPosition YPosition Z Position
	 EndSite
	 {
	 OFFSET 0 -1 0
	 }
}
ROOT ul
{
	 OFFSET 0 0 0
	 CHANNELS 3 XPosition YPosition Z Position
	 EndSite
	 {
	 OFFSET 0 -1 0
	 }
}
ROOT ll
{
	 OFFSET 0 0 0
	 CHANNELS 3 XPosition YPosition Z Position
	 EndSite
	 {
	 OFFSET 0 -1 0
	 }
}
ROOT tt
{
	 OFFSET 0 0 0
	 CHANNELS 3 XPosition YPosition Z Position
	 EndSite
	 {
	 OFFSET 0 -1 0
	 }
}
ROOT tb
{
	 OFFSET 0 0 0
	 CHANNELS 3 XPosition YPosition Z Position
	 EndSite
	 {
	 OFFSET 0 -1 0
	 }
}
ROOT td
{
	 OFFSET 0 0 0
	 CHANNELS 3 XPosition YPosition Z Position
	 EndSite
	 {
	 OFFSET 0 -1 0
	 }
}
ROOT v
{
	 OFFSET 0 0 0
	 CHANNELS 3 XPosition YPosition Z Position
	 EndSite
	 {
	 OFFSET 0 -1 0
	 }
}
ROOT bn
{
	 OFFSET 0 0 0
	 CHANNELS 3 XPosition YPosition Z Position
	 EndSite
	 {
	 OFFSET 0 -1 0
	 }
}
MOTION
Frames: 29
Frame Time: 0.002
0.003823518991470337	-0.0016513079404830932	0		0.4956602783203125	-3.11639404296875	0		-0.9904414672851563	0.046951087951660156	0		-0.8255374755859375	-3.0076669921875	0		0.9512859497070313	-1.3226009521484374	0		2.642304931640625	-0.8561433715820312	0		4.184154296875	-0.3438881530761719	0		5.75291552734375	0.21687228393554686	0		-0.02499237251281738	5.94392724609375	0		
-0.023136396408081055	2.484630048274994E-4	0		0.47008868408203125	-3.1104638671875	0		-1.0613428955078126	0.05256848907470703	0		-0.8241990966796875	-3.00637158203125	0		0.9644708862304687	-1.320349853515625	0		2.602600830078125	-0.8447373046875	0		4.17807666015625	-0.3499560241699219	0		5.73491357421875	0.21818458557128906	0		-0.011354350090026855	5.9560595703125	0		
0.0038974030017852783	-8.713549971580505E-4	0		0.497410888671875	-3.11353173828125	0		-0.98630419921875	0.051452102661132815	0		-0.8207542114257812	-3.00213232421875	0		0.9536863403320313	-1.318663818359375	0		2.636703369140625	-0.8467117309570312	0		4.193259765625	-0.34441546630859377	0		5.7407431640625	0.2080572052001953	0		-0.14336042785644532	5.93386767578125	0		
-0.0019877690076828005	6.051409840583801E-4	0		0.46091668701171873	-3.10843310546875	0		-1.0571287841796875	0.05701824951171875	0		-0.8003433837890624	-3.00222119140625	0		0.9569763793945313	-1.3152523193359376	0		2.664699951171875	-0.8565789794921875	0		4.19344677734375	-0.340604736328125	0		5.7366513671875	0.20010787963867188	0		-0.14291383361816407	5.93319970703125	0		
0.024140415191650392	4.792540073394775E-4	0		0.5044276428222656	-3.105821044921875	0		-0.9820330810546875	0.0548843994140625	0		-0.811724853515625	-2.99273876953125	0		0.9592850952148437	-1.312837646484375	0		2.64325634765625	-0.8375465698242187	0		4.19765185546875	-0.3378823547363281	0		5.72776416015625	0.201232421875	0		-0.1453755798339844	5.93557080078125	0		
-0.015576198577880859	0.007540892124176026	0		0.4651317138671875	-3.093709228515625	0		-1.06091259765625	0.05354960250854492	0		-0.7753179931640625	-2.997145751953125	0		0.9795162353515625	-1.3167657470703125	0		2.612354736328125	-0.8453679809570313	0		4.19785546875	-0.3371037292480469	0		5.7286015625	0.1851581573486328	0		-0.026675870895385742	5.9437236328125	0		
0.013328538894653321	-0.008666806221008301	0		0.5044186096191406	-3.107047119140625	0		-0.9857311401367187	0.052396942138671875	0		-0.8107218627929688	-2.9922626953125	0		0.9489509887695312	-1.310786865234375	0		2.65345654296875	-0.8555142211914063	0		4.1940009765625	-0.3412690734863281	0		5.71978271484375	0.18624501037597657	0		-0.02807184600830078	5.9460537109375	0		
-0.012439478874206543	-0.007901478767395019	0		0.4770540771484375	-3.102194091796875	0		-1.060497802734375	0.053935665130615235	0		-0.8081574096679688	-2.991088623046875	0		0.9582626953125	-1.3135496826171875	0		2.65684619140625	-0.8509881591796875	0		4.20017333984375	-0.3456307373046875	0		5.7151337890625	0.19524200439453124	0		-0.013321553230285645	5.95507666015625	0		
0.008040435791015625	0.005016057014465332	0		0.49356512451171874	-3.1061494140625	0		-1.0561826171875	0.05802718734741211	0		-0.8384187622070313	-2.981345703125	0		0.9657963256835937	-1.30529443359375	0		2.6444580078125	-0.8351935424804687	0		4.21069140625	-0.33207986450195315	0		5.7063642578125	0.19629776000976562	0		-0.01371432113647461	5.95535302734375	0		
-0.0047951979637146	-4.914700090885162E-4	0		0.4853874816894531	-3.093677734375	0		-0.98094921875	0.05584112167358399	0		-0.7649246215820312	-2.987471923828125	0		0.988186767578125	-1.3063194580078126	0		2.663691162109375	-0.8419813842773437	0		4.2109970703125	-0.3313608703613281	0		5.7114697265625	0.18909233093261718	0		-0.014094212532043456	5.95561181640625	0		
0.008593167304992676	0.0055203428268432615	0		0.5109017028808593	-3.099822021484375	0		-0.9847230834960937	0.053047069549560545	0		-0.8002537841796875	-2.9836787109375	0		0.9845093994140625	-1.31189697265625	0		2.6810654296875	-0.8417463989257813	0		4.20721240234375	-0.3365848388671875	0		5.70275244140625	0.19112008666992186	0		-0.014463115692138671	5.9558525390625	0		
-0.02115986442565918	0.003272948980331421	0		0.4996790771484375	-3.09133154296875	0		-0.9925723266601563	0.04530596160888672	0		-0.7636893310546875	-2.987171630859375	0		0.9760202026367187	-1.3074066162109375	0		2.648668701171875	-0.828650634765625	0		4.207544921875	-0.3358983154296875	0		5.6978876953125	0.1840594024658203	0		-0.014820378303527832	5.956076171875	0		
0.014963048934936524	-0.007147189140319824	0		0.4960736083984375	-3.104997802734375	0		-1.059124755859375	0.05457205200195313	0		-0.7969705810546875	-2.981455078125	0		0.9874456787109375	-1.3082845458984376	0		2.654921142578125	-0.83625927734375	0		4.21684814453125	-0.33739126586914064	0		5.693310546875	0.19297024536132812	0		-0.1465434265136719	5.93556787109375	0		
4.4639900326728823E-4	0.0033019769191741945	0		0.5018125305175781	-3.098843505859375	0		-1.0547547607421874	0.05857949829101562	0		-0.7912620239257813	-2.9764375	0		0.9700151977539062	-1.30068017578125	0		2.677261474609375	-0.8391693725585937	0		4.22027685546875	-0.33180831909179687	0		5.7042666015625	0.1745745086669922	0		-0.14589910888671875	5.933724609375	0		
0.026749961853027342	0.003024975061416626	0		0.4818023681640625	-3.07726318359375	0		-0.9794812622070312	0.056351173400878904	0		-0.7875808715820313	-2.972400146484375	0		0.9934183959960937	-1.3028057861328124	0		2.661846923828125	-0.8274508056640625	0		4.21575732421875	-0.3231205444335937	0		5.6997119140625	0.18441419982910157	0		-0.014805736541748047	5.9556220703125	0		
-0.0060458631515502926	-0.002255953073501587	0		0.5062851257324219	-3.084474365234375	0		-0.9832352905273437	0.05347422409057617	0		-0.7900531616210937	-2.976275146484375	0		0.9849190673828125	-1.2984034423828126	0		2.66223095703125	-0.8270372314453125	0		4.2239873046875	-0.32868960571289063	0		5.68591259765625	0.18036793518066407	0		-0.14843116760253905	5.93705029296875	0		
-0.009824478149414062	-0.006057425975799561	0		0.4799210510253906	-3.0808369140625	0		-0.991086669921875	0.04564879608154297	0		-0.7653837890625	-2.97062890625	0		0.985330810546875	-1.2981796875	0		2.669477783203125	-0.8337725830078125	0		4.21818896484375	-0.3350557556152344	0		5.69101318359375	0.1709535675048828	0		-0.030535017013549805	5.94615673828125	0		
-0.00955749225616455	-0.005948625087738037	0		0.5182417602539062	-3.094324951171875	0		-1.0627293701171876	0.05188650894165039	0		-0.7879120483398437	-2.97419873046875	0		0.9696327514648437	-1.302708984375	0		2.66981982421875	-0.8334205322265625	0		4.23046728515625	-0.3357659912109375	0		5.696111328125	0.1624967041015625	0		-0.14799488830566407	5.93624609375	0		
-0.009319706916809082	-0.005859753131866455	0		0.49690283203125	-3.084821044921875	0		-1.0533800048828126	0.05873122787475586	0		-0.7823325805664062	-2.969262451171875	0		0.9911655883789062	-1.29189013671875	0		2.6663154296875	-0.8220327758789062	0		4.2259365234375	-0.323225830078125	0		5.6866220703125	0.18024783325195312	0		-0.015922183990478515	5.9560966796875	0		
-0.007780756950378418	0.014191503524780274	0		0.540407470703125	-3.082428955078125	0		-0.9822584838867188	0.05352592086791992	0		-0.7927294311523437	-2.960072998046875	0		1.0004083862304687	-1.29588623046875	0		2.679334228515625	-0.836954833984375	0		4.23406494140625	-0.3289354248046875	0		5.687525390625	0.16377876281738282	0		-0.01621486473083496	5.9561669921875	0		
-0.008947983741760254	-0.005734059810638428	0		0.5138902587890625	-3.077880615234375	0		-0.9861615600585938	0.04957071685791015	0		-0.7563818969726562	-2.963680419921875	0		0.988697021484375	-1.2945511474609375	0		2.68263427734375	-0.8327368774414062	0		4.22635986328125	-0.32241073608398435	0		5.6876796875	0.164286376953125	0		-0.030702436447143554	5.94545654296875	0		
-0.008816628456115723	-0.005693460941314697	0		0.5391490478515625	-3.084215087890625	0		-0.9901002197265625	0.04560495376586914	0		-0.7919738159179688	-2.9600986328125	0		0.9889251098632813	-1.2944356689453125	0		2.673895263671875	-0.828345458984375	0		4.2344140625	-0.3281843566894531	0		5.67468408203125	0.15797119140625	0		-0.1653477783203125	5.92672314453125	0		
-0.018552881240844726	0.004498531818389892	0		0.4876168518066406	-3.074290283203125	0		-0.9900067138671875	0.04556450653076172	0		-0.75572509765625	-2.963719970703125	0		0.9980447387695313	-1.2984862060546876	0		2.677115478515625	-0.8241802978515625	0		4.2315009765625	-0.329810302734375	0		5.67062109375	0.14946322631835937	0		-0.1485347900390625	5.9344580078125	0		
-0.001537682056427002	0.0012359009981155395	0		0.530760009765625	-3.0819482421875	0		-1.052736328125	0.05855503082275391	0		-0.7852991943359375	-2.953257568359375	0		1.0053424072265624	-1.2895206298828126	0		2.723212890625	-0.8257479858398438	0		4.23567138671875	-0.3245875244140625	0		5.6789248046875	0.16471102905273438	0		-0.1478645782470703	5.9334501953125	0		
0.02855206489562988	0.0037526559829711916	0		0.5211668090820313	-3.070744873046875	0		-0.981770263671875	0.053338417053222655	0		-0.7141897583007812	-2.960458251953125	0		0.9965293579101563	-1.28530517578125	0		2.6803935546875	-0.8198741455078125	0		4.23876708984375	-0.3223796081542969	0		5.66586328125	0.15926702880859375	0		-0.03195305633544922	5.94554541015625	0		
0.00856665802001953	0.0030837829113006593	0		0.5074590148925782	-3.064486572265625	0		-1.065847900390625	0.047663291931152346	0		-0.7957634887695313	-2.94515478515625	0		0.9966263427734375	-1.2852496337890624	0		2.6863505859375	-0.8268261108398437	0		4.23881298828125	-0.32215127563476564	0		5.661736328125	0.15063807678222657	0		-0.03224156570434571	5.94554638671875	0		
-0.004497334003448487	-0.001707273006439209	0		0.51742578125	-3.076627685546875	0		-0.9898606567382813	0.04536844635009766	0		-0.7267450561523437	-2.9543212890625	0		0.996704345703125	-1.2852056884765626	0		2.686406494140625	-0.82670068359375	0		4.24371337890625	-0.33003143310546873	0		5.6617451171875	0.15090704345703124	0		-0.03349596405029297	5.946556640625	0		
-0.008556836128234864	-0.0056521368026733396	0		0.4926959533691406	-3.068210205078125	0		-1.065831298828125	0.04755182266235351	0		-0.795474365234375	-2.945241455078125	0		0.9967643432617187	-1.28517333984375	0		2.68644677734375	-0.8265958862304688	0		4.24682958984375	-0.3239095153808594	0		5.65174462890625	0.1513019256591797	0		-0.2001954345703125	5.9202490234375	0		
-0.011300984382629395	0.010378203392028808	0		0.5238009033203125	-3.068711181640625	0		-0.9817349243164063	0.05313239669799805	0		-0.7543428344726563	-2.943952392578125	0		1.0018878784179688	-1.280234130859375	0		2.686732666015625	-0.8105145874023437	0		4.2588193359375	-0.3249630432128906	0		5.6665869140625	0.14225270080566407	0		-0.16632579040527343	5.9256728515625	0		
